<svg width="50" height="50" viewBox="0 0 50 50" fill="none" xmlns="http://www.w3.org/2000/svg">
<path d="M46.0651 13.4747L30.4401 4.88098C30.2094 4.75406 29.9503 4.6875 29.687 4.6875C29.4237 4.6875 29.1646 4.75406 28.9339 4.88098L13.3089 13.4747C13.0639 13.6096 12.8596 13.8078 12.7173 14.0485C12.5751 14.2893 12.5 14.5638 12.5 14.8435C12.5 15.1231 12.5751 15.3977 12.7173 15.6384C12.8596 15.8792 13.0639 16.0774 13.3089 16.2122L28.1245 24.3607V41.1091L23.3808 38.4997L21.8745 41.2357L28.9339 45.1185C29.1645 45.2457 29.4236 45.3124 29.687 45.3124C29.9504 45.3124 30.2095 45.2457 30.4401 45.1185L46.0651 36.5247C46.3102 36.3899 46.5146 36.1918 46.657 35.951C46.7993 35.7103 46.8745 35.4357 46.8745 35.156V14.8435C46.8745 14.5638 46.7993 14.2892 46.657 14.0484C46.5146 13.8077 46.3102 13.6096 46.0651 13.4747ZM29.687 8.03411L42.0698 14.8435L29.687 21.6529L17.3042 14.8435L29.687 8.03411ZM43.7495 34.2325L31.2495 41.1075V24.3591L43.7495 17.4841V34.2325Z" fill="#F6B00F"/>
<path d="M15.625 25H3.125V21.875H15.625V25ZM18.75 37.5H6.25V34.375H18.75V37.5ZM21.875 31.25H9.375V28.125H21.875V31.25Z" fill="#F6B00F"/>
</svg>
