<svg width="50" height="50" viewBox="0 0 50 50" fill="none" xmlns="http://www.w3.org/2000/svg">
<path d="M14.5846 39.5833C15.6897 39.5833 16.7495 39.1443 17.5309 38.3629C18.3123 37.5815 18.7513 36.5217 18.7513 35.4167C18.7513 34.3116 18.3123 33.2518 17.5309 32.4704C16.7495 31.689 15.6897 31.25 14.5846 31.25C13.4796 31.25 12.4198 31.689 11.6384 32.4704C10.857 33.2518 10.418 34.3116 10.418 35.4167C10.418 36.5217 10.857 37.5815 11.6384 38.3629C12.4198 39.1443 13.4796 39.5833 14.5846 39.5833V39.5833ZM35.418 39.5833C36.523 39.5833 37.5828 39.1443 38.3642 38.3629C39.1456 37.5815 39.5846 36.5217 39.5846 35.4167C39.5846 34.3116 39.1456 33.2518 38.3642 32.4704C37.5828 31.689 36.523 31.25 35.418 31.25C34.3129 31.25 33.2531 31.689 32.4717 32.4704C31.6903 33.2518 31.2513 34.3116 31.2513 35.4167C31.2513 36.5217 31.6903 37.5815 32.4717 38.3629C33.2531 39.1443 34.3129 39.5833 35.418 39.5833V39.5833Z" stroke="#F6B00F" stroke-width="3.125" stroke-miterlimit="1.5" stroke-linecap="round" stroke-linejoin="round"/>
<path d="M29.168 35.4167V13.75C29.168 13.4185 29.0363 13.1005 28.8019 12.8661C28.5674 12.6317 28.2495 12.5 27.918 12.5H5.41797C5.08645 12.5 4.76851 12.6317 4.53409 12.8661C4.29966 13.1005 4.16797 13.4185 4.16797 13.75V34.1667C4.16797 34.3308 4.2003 34.4934 4.26312 34.645C4.32594 34.7967 4.41801 34.9345 4.53409 35.0505C4.65016 35.1666 4.78796 35.2587 4.93961 35.3215C5.09127 35.3843 5.25382 35.4167 5.41797 35.4167H10.418M29.168 35.4167H18.7513M29.168 35.4167V18.75H40.8555C41.0971 18.7501 41.3335 18.8201 41.5361 18.9518C41.7388 19.0834 41.8989 19.2709 41.9971 19.4917L45.7263 27.8833C45.7973 28.0427 45.8343 28.2151 45.8346 28.3896V34.1667C45.8346 34.3308 45.8023 34.4934 45.7395 34.645C45.6767 34.7967 45.5846 34.9345 45.4685 35.0505C45.3524 35.1666 45.2146 35.2587 45.063 35.3215C44.9113 35.3843 44.7488 35.4167 44.5846 35.4167H40.6263" stroke="#F6B00F" stroke-width="3.125" stroke-linecap="round"/>
</svg>
