<svg width="50" height="50" viewBox="0 0 50 50" fill="none" xmlns="http://www.w3.org/2000/svg">
<path d="M22.3969 45.8333H10.2448C9.09364 45.8322 7.98996 45.3745 7.17598 44.5605C6.36199 43.7465 5.90422 42.6428 5.90311 41.4917V21.2833C5.08096 20.6999 4.50134 19.8352 4.27404 18.8531C4.04673 17.8709 4.18754 16.8395 4.66978 15.9542C6.54478 12.6042 8.45728 9.30209 10.3385 6.1375C10.7094 5.53018 11.2315 5.02937 11.8536 4.68396C12.4758 4.33854 13.1769 4.16032 13.8885 4.16667C14.7719 4.175 15.6302 4.45625 16.3469 4.96875L16.3969 5C17.2552 5.5 25.5469 10.4354 32.2114 14.4L38.1281 17.9167L38.3989 18.0771C40.3093 19.1995 42.2149 20.33 44.1156 21.4688C44.9372 22.0504 45.5153 22.9146 45.7394 23.896C45.9635 24.8774 45.8178 25.9069 45.3302 26.7875C43.4906 30.0729 41.5802 33.375 39.6635 36.6042C39.2972 37.2052 38.7834 37.7027 38.1709 38.0495C37.5584 38.3962 36.8674 38.5807 36.1635 38.5854C35.8802 38.5854 35.601 38.5542 35.3302 38.4917C35.0864 38.6354 33.7531 39.4917 32.0635 40.575C29.0573 42.5021 24.9489 45.1375 24.4739 45.3813C23.8331 45.7112 23.1169 45.8671 22.3969 45.8333ZM9.37603 27.1458V41.4917C9.37603 41.9708 9.76561 42.3604 10.2448 42.3604H18.2094C15.2209 37.3146 12.2763 32.2429 9.37603 27.1458ZM12.2052 25.0625C13.0385 26.4938 22.0302 42.0042 22.1052 42.1083C22.1954 42.2262 22.3246 42.308 22.4696 42.3393C22.6147 42.3706 22.7661 42.3493 22.8969 42.2792C23.176 42.1208 31.6323 36.6875 31.7156 36.6333C31.0614 36.2479 26.3281 33.4271 21.3156 30.4417L12.1635 25L12.1781 25.0229L12.1989 25.0583V25.0708L12.2052 25.0625ZM13.1927 8.125C11.5094 10.8333 7.7427 17.5583 7.6927 17.6813C7.63291 17.8241 7.62608 17.9836 7.67344 18.131C7.7208 18.2784 7.81924 18.4041 7.95103 18.4854C8.22811 18.65 35.7719 35.0604 36.0344 35.1021C36.0676 35.1046 36.1011 35.1046 36.1344 35.1021C36.2457 35.1025 36.3551 35.0741 36.4522 35.0197C36.5493 34.9653 36.6307 34.8868 36.6885 34.7917C38.5804 31.5629 40.4513 28.3219 42.301 25.0688C42.3595 24.9252 42.3654 24.7657 42.3178 24.6182C42.2701 24.4707 42.172 24.3447 42.0406 24.2625C41.776 24.1042 14.2844 7.76667 14.1073 7.68958C13.9667 7.63097 13.8101 7.62325 13.6644 7.66775C13.5188 7.71224 13.3932 7.80617 13.3094 7.93334L13.2948 7.95833L13.2781 7.98334L13.2531 8.025V8.03542L13.2219 8.08542L13.1906 8.125H13.1927ZM16.0114 19.5625C15.3254 19.5621 14.6549 19.3584 14.0846 18.9771C13.5143 18.5959 13.0697 18.0541 12.8071 17.4204C12.5445 16.7866 12.4756 16.0892 12.609 15.4163C12.7425 14.7434 13.0724 14.1252 13.5571 13.6396C14.0417 13.1541 14.6594 12.8231 15.3321 12.6884C16.0047 12.5537 16.7022 12.6214 17.3365 12.8829C17.9707 13.1443 18.5132 13.5879 18.8955 14.1575C19.2778 14.7272 19.4827 15.3973 19.4844 16.0833C19.4833 17.0041 19.117 17.8868 18.466 18.5378C17.8149 19.1889 16.9322 19.5552 16.0114 19.5563V19.5625Z" fill="#F6B00F"/>
</svg>
