<svg width="50" height="50" viewBox="0 0 50 50" fill="none" xmlns="http://www.w3.org/2000/svg">
<path d="M45.3125 39.0625H42.1875V35.9375H43.75V29.6875H37.5V31.25H34.375V28.125C34.375 27.7106 34.5396 27.3132 34.8326 27.0201C35.1257 26.7271 35.5231 26.5625 35.9375 26.5625H45.3125C45.7269 26.5625 46.1243 26.7271 46.4174 27.0201C46.7104 27.3132 46.875 27.7106 46.875 28.125V37.5C46.875 37.9144 46.7104 38.3118 46.4174 38.6049C46.1243 38.8979 45.7269 39.0625 45.3125 39.0625Z" fill="#F6B00F"/>
<path d="M37.5 46.8752H28.125C27.7106 46.8752 27.3132 46.7106 27.0201 46.4176C26.7271 46.1246 26.5625 45.7271 26.5625 45.3127V35.9377C26.5625 35.5233 26.7271 35.1259 27.0201 34.8329C27.3132 34.5398 27.7106 34.3752 28.125 34.3752H37.5C37.9144 34.3752 38.3118 34.5398 38.6049 34.8329C38.8979 35.1259 39.0625 35.5233 39.0625 35.9377V45.3127C39.0625 45.7271 38.8979 46.1246 38.6049 46.4176C38.3118 46.7106 37.9144 46.8752 37.5 46.8752ZM29.6875 43.7502H35.9375V37.5002H29.6875V43.7502ZM23.4375 31.0284C22.3085 30.7341 21.2846 30.1292 20.4821 29.2823C19.6796 28.4354 19.1307 27.3805 18.8976 26.2373C18.6646 25.0941 18.7567 23.9085 19.1636 22.815C19.5705 21.7216 20.2759 20.7641 21.1996 20.0514C22.1233 19.3387 23.2283 18.8992 24.3892 18.7829C25.5501 18.6667 26.7204 18.8783 27.7671 19.3937C28.8138 19.9091 29.695 20.7076 30.3106 21.6987C30.9263 22.6897 31.2517 23.8335 31.25 25.0002H34.375C34.3768 23.2124 33.8674 21.4614 32.9068 19.9536C31.9462 18.4457 30.5745 17.244 28.9535 16.4901C27.3324 15.7362 25.5295 15.4615 23.7575 15.6984C21.9855 15.9354 20.3181 16.6741 18.9521 17.8274C17.586 18.9807 16.5783 20.5006 16.0476 22.2078C15.5169 23.915 15.4854 25.7384 15.9568 27.4629C16.4283 29.1875 17.383 30.7412 18.7084 31.941C20.0338 33.1408 21.6747 33.9366 23.4375 34.2346V31.0284Z" fill="#F6B00F"/>
<path d="M45.1391 21.1719L41.5297 24.3438L39.311 22.125L43.0766 18.8125L39.3891 12.4375L34.0141 14.25C32.755 13.202 31.3289 12.3727 29.7953 11.7969L28.686 6.25H21.311L20.2016 11.7969C18.6557 12.3566 17.2218 13.1873 15.9672 14.25L10.6078 12.4375L6.92033 18.8125L11.1703 22.5469C10.8813 24.1643 10.8813 25.8201 11.1703 27.4375L6.92033 31.1875L10.6078 37.5625L15.9828 35.75C17.2419 36.798 18.668 37.6273 20.2016 38.2031L21.311 43.75H23.436V46.875H21.311C20.5884 46.8744 19.8883 46.6234 19.3299 46.1648C18.7715 45.7061 18.3894 45.0681 18.2485 44.3594L17.4516 40.4219C16.7442 40.0769 16.0604 39.6854 15.4047 39.25L11.6078 40.5312C11.285 40.6363 10.9474 40.6891 10.6078 40.6875C10.059 40.6913 9.51904 40.5484 9.04384 40.2738C8.56863 39.9991 8.17538 39.6025 7.90471 39.125L4.21721 32.75C3.8525 32.1235 3.71698 31.3896 3.83385 30.6741C3.95072 29.9586 4.31271 29.3061 4.85783 28.8281L7.85784 26.2031C7.82659 25.7969 7.81096 25.4062 7.81096 25C7.81096 24.5938 7.84221 24.2031 7.87346 23.8125L4.85783 21.1719C4.31271 20.6939 3.95072 20.0414 3.83385 19.3259C3.71698 18.6104 3.8525 17.8765 4.21721 17.25L7.90471 10.875C8.17538 10.3975 8.56863 10.0009 9.04384 9.72624C9.51904 9.45155 10.059 9.30872 10.6078 9.3125C10.9474 9.31094 11.285 9.36369 11.6078 9.46875L15.3891 10.75C16.0501 10.3145 16.7391 9.92306 17.4516 9.57812L18.2485 5.64062C18.3894 4.93189 18.7715 4.29389 19.3299 3.83523C19.8883 3.37656 20.5884 3.12558 21.311 3.125H28.686C29.4086 3.12558 30.1086 3.37656 30.667 3.83523C31.2254 4.29389 31.6076 4.93189 31.7485 5.64062L32.5453 9.57812C33.2527 9.92315 33.9365 10.3146 34.5922 10.75L38.3891 9.46875C38.712 9.36369 39.0496 9.31094 39.3891 9.3125C39.938 9.30872 40.4779 9.45155 40.9531 9.72624C41.4283 10.0009 41.8215 10.3975 42.0922 10.875L45.7797 17.25C46.1444 17.8765 46.2799 18.6104 46.1631 19.3259C46.0462 20.0414 45.6842 20.6939 45.1391 21.1719Z" fill="#F6B00F"/>
</svg>
