<svg width="50" height="50" viewBox="0 0 50 50" fill="none" xmlns="http://www.w3.org/2000/svg">
<g clip-path="url(#clip0_1459_3727)">
<path d="M46.875 31.2501C46.8781 29.6855 46.4897 28.145 45.745 26.769C45.0003 25.393 43.923 24.2252 42.6114 23.3722C41.2998 22.5191 39.7956 22.0079 38.2358 21.8851C36.676 21.7623 35.1103 22.0319 33.6813 22.6692C32.2524 23.3065 31.0057 24.2913 30.0548 25.5338C29.104 26.7763 28.4792 28.2371 28.2375 29.7829C27.9958 31.3288 28.1449 32.9105 28.671 34.384C29.1972 35.8575 30.0838 37.1758 31.25 38.2189V50.0002L37.5 47.0408L43.75 50.0002V38.2189C44.7323 37.3429 45.5185 36.2693 46.057 35.0684C46.5955 33.8675 46.8743 32.5663 46.875 31.2501ZM40.625 45.0627L37.5 43.583L34.375 45.0627V40.0783C36.3945 40.8076 38.6055 40.8076 40.625 40.0783V45.0627ZM37.5 37.5001C36.2638 37.5001 35.0555 37.1336 34.0277 36.4468C32.9999 35.7601 32.1988 34.784 31.7257 33.6419C31.2527 32.4999 31.1289 31.2432 31.3701 30.0308C31.6112 28.8185 32.2065 27.7048 33.0806 26.8307C33.9546 25.9567 35.0683 25.3614 36.2807 25.1202C37.493 24.8791 38.7497 25.0029 39.8918 25.4759C41.0338 25.9489 42.0099 26.75 42.6967 27.7778C43.3834 28.8056 43.75 30.014 43.75 31.2501C43.7479 32.9071 43.0888 34.4956 41.9171 35.6673C40.7455 36.8389 39.1569 37.4981 37.5 37.5001Z" fill="#F6B00F"/>
<path d="M39.0625 7.8125H34.375V6.25C34.3725 5.42196 34.0425 4.62854 33.457 4.04302C32.8715 3.45751 32.078 3.12747 31.25 3.125H18.75C17.922 3.12747 17.1285 3.45751 16.543 4.04302C15.9575 4.62854 15.6275 5.42196 15.625 6.25V7.8125H10.9375C10.1095 7.81497 9.31604 8.14501 8.73052 8.73052C8.14501 9.31604 7.81497 10.1095 7.8125 10.9375V43.75C7.81497 44.578 8.14501 45.3715 8.73052 45.957C9.31604 46.5425 10.1095 46.8725 10.9375 46.875H25V43.75H10.9375V10.9375H15.625V15.625H34.375V10.9375H39.0625V18.75H42.1875V10.9375C42.185 10.1095 41.855 9.31604 41.2695 8.73052C40.684 8.14501 39.8905 7.81497 39.0625 7.8125ZM31.25 12.5H18.75V6.25H31.25V12.5Z" fill="#F6B00F"/>
</g>
<defs>
<clipPath id="clip0_1459_3727">
<rect width="50" height="50" fill="white"/>
</clipPath>
</defs>
</svg>
