<svg width="248" height="30" viewBox="0 0 248 30" fill="none" xmlns="http://www.w3.org/2000/svg">
<path d="M31 2V1.69843C31 0.760375 30.2402 0 29.3027 0H29C30.1042 0 30.9992 0.895327 31 2Z" fill="#1C3473"/>
<path d="M31 29.0059V14.1294L12.2573 0H1.99428C0.892915 0 0 0.892915 0 1.99413V8.40422L4.3765 5.10638L5.78201 4.04722C6.48933 3.51421 7.46392 3.51421 8.17109 4.04722L9.57674 5.10638L20.0816 13.0224L21.0117 13.7232C21.5093 14.0982 21.8019 14.6853 21.8019 15.3085V16.4729V31H29.0059C30.1072 31 31 30.1072 31 29.0059Z" fill="#1C3473"/>
<path d="M30 2.04438C29.9993 0.915193 29.1561 0 28.1158 0H27.4907H22.9905H19L30 9V2.72453V2.04579C30 2.04532 30 2.04485 30 2.04438Z" fill="#F6B00F"/>
<path d="M5.62661 9.39022C3.68933 10.8697 0 13.7279 0 13.7279V29.006C0 30.1072 0.863877 31 1.92942 31H17L16.9994 17.394C16.9994 16.7679 16.7148 16.178 16.231 15.8011L11.8923 12.4221C11.8923 12.4221 9.42218 10.5378 7.91714 9.38976C7.23567 8.87 6.30763 8.87 5.62661 9.39022Z" fill="#F6B00F"/>
<path d="M52.5996 5H45V27H52.5996C59.5615 27 64 22.7573 64 16.0001C64 9.24297 59.5615 5 52.5996 5ZM52.4177 22.2543H50.3201V9.74586H52.4177C55.7006 9.74586 58.6799 11.2856 58.6799 16.0001C58.6799 20.7146 55.7006 22.2543 52.4177 22.2543Z" fill="#1C3473"/>
<path d="M79.5003 4C73.0023 4 68 8.67438 68 15.4064C68 22.1378 72.7887 27 79.5003 27C86.211 27 91 22.1378 91 15.4064C91 8.67438 86.0889 4 79.5003 4ZM79.5003 21.982C75.8696 21.982 73.4601 19.2708 73.4601 15.4064C73.4601 11.5421 75.8696 8.8307 79.5003 8.8307C83.2217 8.8307 85.5096 11.5421 85.5096 15.4064C85.5096 19.2708 83.1304 21.982 79.5003 21.982Z" fill="#1C3473"/>
<path d="M107.5 17.3309L98.4282 4L95 27H100.4L101.705 15.8598L107.5 24.9664L113.295 15.8598L114.569 27H120L116.541 4L107.5 17.3309Z" fill="#1C3473"/>
<path d="M136.5 4C130.002 4 125 8.67438 125 15.4064C125 22.1378 129.789 27 136.5 27C143.211 27 148 22.1378 148 15.4064C148 8.67438 143.089 4 136.5 4ZM136.5 21.982C132.87 21.982 130.46 19.2708 130.46 15.4064C130.46 11.5421 132.87 8.8307 136.5 8.8307C140.222 8.8307 142.51 11.5421 142.51 15.4064C142.51 19.2708 140.13 21.982 136.5 21.982Z" fill="#1C3473"/>
<path d="M163.507 13.4118C160.531 12.352 158.782 11.573 158.782 10.077C158.782 9.1112 159.549 8.39389 161.022 8.39389C162.679 8.39389 163.998 9.42262 164.95 10.9809L168.908 8.73685C167.773 6.49321 165.287 4 160.96 4C156.787 4 153.473 6.3375 153.473 10.2327C153.473 14.4715 157.094 16.1542 159.211 16.9647C162.311 18.1485 163.507 18.7412 163.507 20.3612C163.507 21.7016 162.433 22.5123 160.899 22.5123C158.72 22.5123 156.94 21.0162 155.621 18.6474L152 21.2967C153.411 24.4753 156.848 27 161.052 27C165.103 27 169 24.5686 169 20.1123C169 16.5285 166.515 14.4715 163.507 13.4118Z" fill="#1C3473"/>
<path d="M172 9.7769H177.892V27H183.108V9.7769H189V5H172V9.7769Z" fill="#1C3473"/>
<path d="M209.747 12.1972C209.747 7.95433 206.944 5 201.605 5H194V27H199.04V19.3943H200.591L205.065 27H211L205.572 18.7032C208.316 17.6028 209.747 15.2143 209.747 12.1972ZM201.248 15.2455H199.04V9.52584H201.248C203.275 9.52584 204.498 10.5628 204.498 12.386C204.498 14.2087 203.275 15.2455 201.248 15.2455Z" fill="#1C3473"/>
<path d="M225.5 4C219.003 4 214 8.67438 214 15.4064C214 22.1378 218.789 27 225.5 27C232.211 27 237 22.1378 237 15.4064C237 8.67438 232.089 4 225.5 4ZM225.5 21.982C221.87 21.982 219.46 19.2708 219.46 15.4064C219.46 11.5421 221.87 8.8307 225.5 8.8307C229.221 8.8307 231.509 11.5421 231.509 15.4064C231.509 19.2708 229.13 21.982 225.5 21.982Z" fill="#1C3473"/>
<path d="M243 5V27H248V5H243Z" fill="#1C3473"/>
</svg>
