<svg width="230" height="28" viewBox="0 0 230 28" fill="none" xmlns="http://www.w3.org/2000/svg">
<path d="M28.3594 1.82168V1.547C28.3594 0.69258 27.6698 0 26.8191 0H26.5443C27.5464 0 28.3587 0.8155 28.3594 1.82168Z" fill="#1C3473"/>
<path d="M28.3594 26.6503V12.9819L11.2134 0H1.82463C0.817093 0 0.000244141 0.8204 0.000244141 1.83218V7.7217L4.00392 4.69168L5.28969 3.71854C5.93675 3.22882 6.82832 3.22882 7.47524 3.71854L8.76115 4.69168L18.3711 11.9648L19.222 12.6087C19.6772 12.9532 19.9449 13.4926 19.9449 14.0652V15.1351V28.4824H26.5351C27.5427 28.4824 28.3594 27.6622 28.3594 26.6503Z" fill="#1C3473"/>
<path d="M28.3595 1.82168C28.3588 0.8155 27.5465 0 26.5444 0H25.9423H21.6072H17.7632L28.3595 8.01962V2.42774V1.82294C28.3595 1.82252 28.3595 1.8221 28.3595 1.82168Z" fill="#1C3473"/>
<path d="M5.29331 8.72685C3.47087 10.0794 0.000244141 12.6924 0.000244141 12.6924V26.6596C0.000244141 27.6663 0.812911 28.4825 1.81529 28.4825H15.9925L15.9919 16.044C15.9919 15.4715 15.7242 14.9322 15.269 14.5877L11.1876 11.4986C11.1876 11.4986 8.86388 9.77601 7.44806 8.72643C6.80699 8.25127 5.93396 8.25127 5.29331 8.72685Z" fill="#1C3473"/>
<path d="M48.4401 4.45264H41.3469V24.4005H48.4401C54.9381 24.4005 59.0809 20.5536 59.0809 14.4267C59.0809 8.29984 54.9381 4.45264 48.4401 4.45264ZM48.2703 20.0975H46.3126V8.75582H48.2703C51.3345 8.75582 54.1153 10.1519 54.1153 14.4267C54.1153 18.7014 51.3345 20.0975 48.2703 20.0975Z" fill="#1C3473"/>
<path d="M73.6925 3.99658C67.6484 3.99658 62.9956 8.27078 62.9956 14.4264C62.9956 20.5815 67.4498 25.0275 73.6925 25.0275C79.9345 25.0275 84.3889 20.5815 84.3889 14.4264C84.3889 8.27078 79.8209 3.99658 73.6925 3.99658ZM73.6925 20.4392C70.3155 20.4392 68.0743 17.96 68.0743 14.4264C68.0743 10.893 70.3155 8.41372 73.6925 8.41372C77.154 8.41372 79.2821 10.893 79.2821 14.4264C79.2821 17.96 77.0691 20.4392 73.6925 20.4392Z" fill="#1C3473"/>
<path d="M99.9661 15.5952L91.4823 3.45508L88.2762 24.4006H93.3264L94.5465 14.2555L99.9661 22.5487L105.385 14.2555L106.577 24.4006H111.656L108.421 3.45508L99.9661 15.5952Z" fill="#1C3473"/>
<path d="M126.239 3.99658C120.195 3.99658 115.542 8.27078 115.542 14.4264C115.542 20.5815 119.997 25.0275 126.239 25.0275C132.482 25.0275 136.936 20.5815 136.936 14.4264C136.936 8.27078 132.368 3.99658 126.239 3.99658ZM126.239 20.4392C122.863 20.4392 120.621 17.96 120.621 14.4264C120.621 10.893 122.863 8.41372 126.239 8.41372C129.701 8.41372 131.829 10.893 131.829 14.4264C131.829 17.96 129.616 20.4392 126.239 20.4392Z" fill="#1C3473"/>
<path d="M151.435 12.6027C148.683 11.6336 147.065 10.9213 147.065 9.55332C147.065 8.6702 147.774 8.0143 149.136 8.0143C150.668 8.0143 151.889 8.95496 152.768 10.3799L156.428 8.3279C155.379 6.27634 153.08 3.99658 149.08 3.99658C145.221 3.99658 142.156 6.13396 142.156 9.6957C142.156 13.5716 145.505 15.1102 147.462 15.8514C150.328 16.9338 151.435 17.4758 151.435 18.9571C151.435 20.1827 150.442 20.924 149.023 20.924C147.008 20.924 145.362 19.556 144.143 17.39L140.794 19.8125C142.099 22.7189 145.277 25.0275 149.165 25.0275C152.91 25.0275 156.513 22.8043 156.513 18.7295C156.513 15.4525 154.215 13.5716 151.435 12.6027Z" fill="#1C3473"/>
<path d="M159.691 8.78396H165.139V24.4005H169.962V8.78396H175.41V4.45264H159.691V8.78396Z" fill="#1C3473"/>
<path d="M194.562 10.9785C194.562 7.1314 191.895 4.45264 186.816 4.45264H179.58V24.4005H184.375V17.5043H185.851L190.107 24.4005H195.754L190.589 16.8776C193.2 15.8799 194.562 13.7142 194.562 10.9785ZM186.475 13.7425H184.375V8.55632H186.475C188.404 8.55632 189.568 9.49656 189.568 11.1497C189.568 12.8024 188.404 13.7425 186.475 13.7425Z" fill="#1C3473"/>
<path d="M209.486 3.99658C203.442 3.99658 198.789 8.27078 198.789 14.4264C198.789 20.5815 203.244 25.0275 209.486 25.0275C215.728 25.0275 220.183 20.5815 220.183 14.4264C220.183 8.27078 215.614 3.99658 209.486 3.99658ZM209.486 20.4392C206.109 20.4392 203.867 17.96 203.867 14.4264C203.867 10.893 206.109 8.41372 209.486 8.41372C212.947 8.41372 215.075 10.893 215.075 14.4264C215.075 17.96 212.862 20.4392 209.486 20.4392Z" fill="#1C3473"/>
<path d="M225.204 4.45264V24.4005H230.085V4.45264H225.204Z" fill="#1C3473"/>
</svg>
